<svg width="44" height="44" viewBox="0 0 44 44" fill="none" xmlns="http://www.w3.org/2000/svg">
<path d="M0 22C0 9.84974 9.84974 0 22 0C34.1503 0 44 9.84974 44 22C44 34.1503 34.1503 44 22 44C9.84974 44 0 34.1503 0 22Z" fill="white"/>
<path d="M31 11.5C31.8438 11.5 32.5 12.2031 32.5 13V31C32.5 31.8438 31.8438 32.5 31 32.5H13C12.1562 32.5 11.5 31.8438 11.5 31V13C11.5 12.2031 12.1562 11.5 13 11.5H31ZM17.8281 29.5H17.875V19.4688H14.7344V29.5H17.8281ZM16.2812 14.5C15.2969 14.5 14.5 15.2969 14.5 16.3281C14.5 17.3125 15.2969 18.1094 16.2812 18.1094C17.2656 18.1094 18.1094 17.3125 18.1094 16.3281C18.1094 15.2969 17.2656 14.5 16.2812 14.5ZM29.5 29.5V24.0156C29.5 21.2969 28.9375 19.2344 25.7969 19.2344C24.25 19.2344 23.2656 20.0781 22.8438 20.8281H22.7969V19.4688H19.7969V29.5H22.9375V24.5312C22.9375 23.2188 23.1719 21.9531 24.7656 21.9531C26.3594 21.9531 26.4062 23.4531 26.4062 24.625V29.5H29.5Z" fill="#000810"/>
</svg>
